<mxfile host="65bd71144e">
    <diagram id="BO7TC3tXFmUkNRqYn452" name="Page-1">
        <mxGraphModel dx="475" dy="271" grid="1" gridSize="10" guides="1" tooltips="1" connect="1" arrows="1" fold="1" page="1" pageScale="1" pageWidth="850" pageHeight="1100" math="0" shadow="0">
            <root>
                <mxCell id="0"/>
                <mxCell id="1" parent="0"/>
                <mxCell id="6" value="" style="edgeStyle=none;html=1;" edge="1" parent="1" source="3" target="5">
                    <mxGeometry relative="1" as="geometry"/>
                </mxCell>
                <mxCell id="3" value="Aim:&lt;br&gt;A machine learning app&lt;br&gt;&amp;nbsp;Helping to select the best model based on&amp;nbsp;&lt;br&gt;&amp;nbsp;regression or classification&amp;nbsp;&lt;br&gt;&lt;div style=&quot;&quot;&gt;&lt;span style=&quot;background-color: initial;&quot;&gt;fine tuning the model.&lt;/span&gt;&lt;/div&gt;" style="rounded=1;whiteSpace=wrap;html=1;fillColor=#6d8764;fontColor=#ffffff;strokeColor=#3A5431;align=left;" vertex="1" parent="1">
                    <mxGeometry x="160" y="30" width="250" height="100" as="geometry"/>
                </mxCell>
                <mxCell id="8" value="" style="edgeStyle=none;html=1;" edge="1" parent="1" source="5" target="7">
                    <mxGeometry relative="1" as="geometry"/>
                </mxCell>
                <mxCell id="5" value="Load the data and upload the data" style="ellipse;whiteSpace=wrap;html=1;align=center;fillColor=#6d8764;strokeColor=#3A5431;fontColor=#ffffff;rounded=1;" vertex="1" parent="1">
                    <mxGeometry x="237.5" y="160" width="95" height="90" as="geometry"/>
                </mxCell>
                <mxCell id="13" value="" style="edgeStyle=none;html=1;" edge="1" parent="1" source="7" target="12">
                    <mxGeometry relative="1" as="geometry"/>
                </mxCell>
                <mxCell id="7" value="Example Data button" style="whiteSpace=wrap;html=1;fillColor=#6d8764;strokeColor=#3A5431;fontColor=#ffffff;rounded=1;" vertex="1" parent="1">
                    <mxGeometry x="225" y="290" width="120" height="60" as="geometry"/>
                </mxCell>
                <mxCell id="17" value="" style="edgeStyle=none;html=1;" edge="1" parent="1" source="10" target="16">
                    <mxGeometry relative="1" as="geometry"/>
                </mxCell>
                <mxCell id="10" value="Asking for the&amp;nbsp;&lt;br&gt;Features and Target&lt;br&gt;We have to find if the&amp;nbsp;&lt;br&gt;problem is&lt;br&gt;Regresssion or&lt;br&gt;Classification" style="whiteSpace=wrap;html=1;fillColor=#647687;strokeColor=#314354;fontColor=#ffffff;rounded=1;" vertex="1" parent="1">
                    <mxGeometry x="217.5" y="480" width="135" height="90" as="geometry"/>
                </mxCell>
                <mxCell id="15" value="" style="edgeStyle=none;html=1;" edge="1" parent="1" source="12" target="10">
                    <mxGeometry relative="1" as="geometry"/>
                </mxCell>
                <mxCell id="12" value="Check the column&lt;br&gt;names and data types" style="whiteSpace=wrap;html=1;fillColor=#647687;strokeColor=#314354;fontColor=#ffffff;rounded=1;" vertex="1" parent="1">
                    <mxGeometry x="225" y="400" width="120" height="60" as="geometry"/>
                </mxCell>
                <mxCell id="21" value="" style="edgeStyle=none;html=1;" edge="1" parent="1" source="16" target="20">
                    <mxGeometry relative="1" as="geometry"/>
                </mxCell>
                <mxCell id="16" value="Preprocessing&lt;br&gt;- Null values&amp;nbsp;&lt;br&gt;Imputation&lt;br&gt;- Feature&amp;nbsp; Encoding&lt;br&gt;- Inverse Transform&lt;br&gt;- Feature Selection&amp;nbsp;" style="whiteSpace=wrap;html=1;fillColor=#647687;strokeColor=#314354;fontColor=#ffffff;rounded=1;" vertex="1" parent="1">
                    <mxGeometry x="217.5" y="610" width="135" height="110" as="geometry"/>
                </mxCell>
                <mxCell id="23" value="" style="edgeStyle=none;html=1;" edge="1" parent="1" source="20" target="22">
                    <mxGeometry relative="1" as="geometry"/>
                </mxCell>
                <mxCell id="20" value="Select the model&lt;br&gt;all regressor or&amp;nbsp;&lt;br&gt;classifier models (This will based on the point of selecting target variable)&amp;nbsp;" style="whiteSpace=wrap;html=1;fillColor=#6d8764;strokeColor=#3A5431;fontColor=#ffffff;rounded=1;" vertex="1" parent="1">
                    <mxGeometry x="225" y="760" width="115" height="90" as="geometry"/>
                </mxCell>
                <mxCell id="30" value="" style="edgeStyle=none;html=1;" edge="1" parent="1" source="22" target="27">
                    <mxGeometry relative="1" as="geometry"/>
                </mxCell>
                <mxCell id="22" value="Add the evalution&amp;nbsp;&amp;nbsp;&lt;br&gt;metrics on the&amp;nbsp;&lt;br&gt;problem" style="whiteSpace=wrap;html=1;fillColor=#6d8764;strokeColor=#3A5431;fontColor=#ffffff;rounded=1;" vertex="1" parent="1">
                    <mxGeometry x="225" y="900" width="120" height="60" as="geometry"/>
                </mxCell>
                <mxCell id="32" value="" style="edgeStyle=none;html=1;" edge="1" parent="1" source="27" target="31">
                    <mxGeometry relative="1" as="geometry"/>
                </mxCell>
                <mxCell id="27" value="Print the evaluation&amp;nbsp; metrics and select the&amp;nbsp;&lt;br&gt;best possible model&amp;nbsp;&lt;br&gt;with multiple&lt;br&gt;hyperparameters" style="whiteSpace=wrap;html=1;fillColor=#6d8764;strokeColor=#3A5431;fontColor=#ffffff;rounded=1;" vertex="1" parent="1">
                    <mxGeometry x="225" y="1010" width="125" height="110" as="geometry"/>
                </mxCell>
                <mxCell id="31" value="Ask user for input data&lt;br&gt;based on siliders and predict the output of&amp;nbsp;&lt;br&gt;target variable with&amp;nbsp;&lt;br&gt;respect to metric" style="whiteSpace=wrap;html=1;fillColor=#6d8764;strokeColor=#3A5431;fontColor=#ffffff;rounded=1;" vertex="1" parent="1">
                    <mxGeometry x="220" y="1170" width="132.5" height="110" as="geometry"/>
                </mxCell>
            </root>
        </mxGraphModel>
    </diagram>
</mxfile>